<svg width="291" height="64" viewBox="0 0 291 64" fill="" xmlns="http://www.w3.org/2000/svg">
<path d="M17.252 5.25L19.959 1.43555C20.1777 1.10742 20.3965 0.943359 20.6152 0.943359C20.6973 0.943359 20.7656 0.970703 20.8203 1.02539C20.875 1.08008 20.9023 1.17578 20.9023 1.3125V25.7988C20.9023 25.9355 20.8477 26.0449 20.7383 26.127C20.6562 26.209 20.5469 26.25 20.4102 26.25C20.2188 26.25 20.0957 26.1953 20.041 26.0859C19.9863 26.0039 19.9043 25.2793 19.7949 23.9121C18.8652 13.9863 17.4707 7.47852 15.6113 4.38867C14.5449 2.66602 13.2871 1.80469 11.8379 1.80469C11.0449 1.80469 10.375 2.16016 9.82812 2.87109C9.28125 3.58203 9.00781 4.85352 9.00781 6.68555V59.7188C9.00781 60.5938 9.25391 61.291 9.74609 61.8105C10.2383 62.3027 10.8535 62.5488 11.5918 62.5488C12.3848 62.5488 13.0137 62.2617 13.4785 61.6875C14.1074 60.8672 14.4219 59.7598 14.4219 58.3652V35.4785H12.2891C12.1523 35.4785 12.0293 35.4375 11.9199 35.3555C11.8379 35.2461 11.7969 35.123 11.7969 34.9863C11.7969 34.8223 11.8379 34.6992 11.9199 34.6172C12.0293 34.5078 12.1523 34.4531 12.2891 34.4531H24.2246C24.3613 34.4531 24.4707 34.5078 24.5527 34.6172C24.6348 34.6992 24.6758 34.8223 24.6758 34.9863C24.6758 35.123 24.6348 35.2461 24.5527 35.3555C24.4707 35.4375 24.3613 35.4785 24.2246 35.4785H22.3789V63C22.3789 63.2188 22.3379 63.3828 22.2559 63.4922C22.2012 63.5742 22.1191 63.6152 22.0098 63.6152C21.9004 63.6152 21.791 63.5742 21.6816 63.4922C21.5996 63.4102 21.5039 63.2461 21.3945 63L19.0566 57.2168C17.4707 59.9238 16.1582 61.6738 15.1191 62.4668C14.1074 63.2324 12.9316 63.6152 11.5918 63.6152C7.87305 63.6152 5.05664 61.5234 3.14258 57.3398C1.22852 53.1562 0.271484 47.4961 0.271484 40.3594V25.1016C0.271484 17.8008 1.29688 11.9082 3.34766 7.42383C5.39844 2.91211 8.06445 0.65625 11.3457 0.65625C13.7246 0.65625 15.6934 2.1875 17.252 5.25Z" fill="#F5E62D"/>
<path d="M29.3105 2.37891H26.8906C26.5898 2.16016 26.4395 1.98242 26.4395 1.8457C26.4395 1.68164 26.5898 1.50391 26.8906 1.3125H40.0566C40.1934 1.3125 40.3027 1.36719 40.3848 1.47656C40.4668 1.55859 40.5078 1.66797 40.5078 1.80469C40.5078 1.99609 40.4668 2.14648 40.3848 2.25586C40.3027 2.33789 40.1934 2.37891 40.0566 2.37891H37.7598V58.8164C37.7598 59.9648 38.0742 60.8535 38.7031 61.4824C39.332 62.1113 40.1797 62.4258 41.2461 62.4258C43.1875 62.4258 44.7871 61.6602 46.0449 60.1289C47.3301 58.5703 47.9727 56.123 47.9727 52.7871V7.62891C47.9727 5.57812 47.7949 4.2793 47.4395 3.73242C47.1113 3.1582 46.4688 2.76172 45.5117 2.54297C45.0195 2.43359 44.6914 2.31055 44.5273 2.17383C44.3906 2.00977 44.3223 1.8457 44.3223 1.68164L44.4043 1.39453L44.7324 1.3125H51.2129C51.377 1.3125 51.582 1.46289 51.8281 1.76367C51.8281 1.90039 51.7598 2.02344 51.623 2.13281C51.5137 2.24219 51.3086 2.32422 51.0078 2.37891C50.4609 2.46094 50.0371 2.77539 49.7363 3.32227C49.2168 4.19727 48.957 5.63281 48.957 7.62891V53.9355C48.957 57.1074 48.1367 59.5137 46.4961 61.1543C44.8828 62.7949 42.5449 63.6152 39.4824 63.6152C35.627 63.6152 32.8379 62.6309 31.1152 60.6621C29.9121 59.2676 29.3105 56.6426 29.3105 52.7871V2.37891Z" fill="#F5E62D"/>
<path d="M56.5859 2.33789H54.125C53.9883 2.33789 53.8789 2.29688 53.7969 2.21484C53.7148 2.10547 53.6738 1.98242 53.6738 1.8457C53.6738 1.68164 53.7148 1.55859 53.7969 1.47656C53.8789 1.36719 53.9883 1.3125 54.125 1.3125H67.4551C67.5918 1.3125 67.7012 1.36719 67.7832 1.47656C67.8926 1.55859 67.9473 1.66797 67.9473 1.80469C67.9473 1.96875 67.8926 2.10547 67.7832 2.21484C67.7012 2.29688 67.5918 2.33789 67.4551 2.33789H64.9941V61.9336H67.4551C67.7285 62.125 67.8652 62.3027 67.8652 62.4668C67.8652 62.6582 67.7285 62.8359 67.4551 63H53.7969C53.4961 62.8086 53.3457 62.6309 53.3457 62.4668C53.3457 62.3027 53.4961 62.125 53.7969 61.9336H56.5859V2.33789Z" fill="#F5E62D"/>
<path d="M79.5137 2.33789H78.6523C78.0508 2.33789 77.5312 2.5293 77.0938 2.91211C76.4375 3.48633 75.7949 4.75781 75.166 6.72656C74.1543 9.87109 73.293 13.6445 72.582 18.0469C71.8711 22.4219 71.5156 25.1973 71.5156 26.373V27.3164C71.5156 27.5352 71.4609 27.7129 71.3516 27.8496C71.2422 27.959 71.1191 28.0137 70.9824 28.0137C70.8184 28.0137 70.6953 27.959 70.6133 27.8496C70.4766 27.6855 70.4082 27.5078 70.4082 27.3164V1.3125H97.0684V27.3164C97.0684 27.5078 97.0137 27.6719 96.9043 27.8086C96.7949 27.918 96.6582 27.9727 96.4941 27.9727C96.3574 27.9727 96.2344 27.918 96.125 27.8086C96.0156 27.6719 95.9609 27.5078 95.9609 27.3164V25.7168C95.9609 24.1582 95.5645 21.2598 94.7715 17.0215C94.0059 12.7559 93.1172 9.17383 92.1055 6.27539C91.4492 4.41602 90.9023 3.29492 90.4648 2.91211C90.0547 2.5293 89.6582 2.33789 89.2754 2.33789H87.9629V61.9336H91.1621C91.4629 62.125 91.6133 62.3027 91.6133 62.4668C91.6133 62.6309 91.4629 62.8086 91.1621 63H75.9453C75.8086 63 75.6992 62.959 75.6172 62.877C75.5352 62.7676 75.4941 62.6309 75.4941 62.4668C75.4941 62.3027 75.5352 62.1797 75.6172 62.0977C75.6992 61.9883 75.8086 61.9336 75.9453 61.9336H79.5137V2.33789Z" fill="#F5E62D"/>
<path d="M106.994 2.17383H111.547L118.848 61.9336H120.693C120.994 62.125 121.145 62.3027 121.145 62.4668C121.145 62.6309 120.994 62.8086 120.693 63H108.348C108.211 63 108.102 62.959 108.02 62.877C107.938 62.7676 107.896 62.6309 107.896 62.4668C107.896 62.3027 107.938 62.1797 108.02 62.0977C108.102 61.9883 108.211 61.9336 108.348 61.9336H110.316L109.25 50.2852H101.826L100.924 56.8887C100.896 57.2441 100.883 57.6133 100.883 57.9961C100.883 59.1992 101.102 60.1152 101.539 60.7441C102.004 61.3457 102.633 61.7148 103.426 61.8516L104.082 62.0566C104.191 62.166 104.246 62.3027 104.246 62.4668C104.246 62.6309 104.191 62.7676 104.082 62.877C104 62.959 103.891 63 103.754 63H96.7402C96.6035 63 96.4805 62.959 96.3711 62.877C96.2891 62.7676 96.248 62.6309 96.248 62.4668C96.248 62.3027 96.2891 62.166 96.3711 62.0566L96.8633 61.8926C97.6562 61.7832 98.2715 61.4277 98.709 60.8262C99.3652 59.8691 99.8301 58.2832 100.104 56.0684L106.994 2.17383ZM105.969 17.4727L101.949 49.2188H109.127L105.969 17.4727Z" fill="#F5E62D"/>
<path d="M125.328 2.33789H122.908C122.607 2.17383 122.457 1.99609 122.457 1.80469C122.457 1.64062 122.607 1.47656 122.908 1.3125H135.828C139.027 1.3125 141.803 2.67969 144.154 5.41406C146.506 8.12109 147.682 11.8262 147.682 16.5293C147.682 19.2363 147.23 21.6426 146.328 23.748C145.426 25.8535 144.086 27.5898 142.309 28.957C141.242 29.7773 139.588 30.5703 137.346 31.3359C139.861 32.0742 141.611 32.7852 142.596 33.4688C144.264 34.6172 145.494 35.998 146.287 37.6113C147.107 39.2246 147.518 41.3164 147.518 43.8867V58.8984C147.518 59.582 147.627 60.0605 147.846 60.334C148.064 60.6074 148.352 60.7441 148.707 60.7441C149.254 60.7441 149.746 60.4023 150.184 59.7188C150.895 58.625 151.346 56.6562 151.537 53.8125C151.564 53.3203 151.633 52.9922 151.742 52.8281C151.879 52.6641 152.016 52.582 152.152 52.582C152.316 52.582 152.453 52.6777 152.562 52.8691C152.699 53.0879 152.768 53.498 152.768 54.0996C152.768 57.1348 152.029 59.4863 150.553 61.1543C149.104 62.7949 147.271 63.6152 145.057 63.6152C143.088 63.6152 141.598 63.1094 140.586 62.0977C139.574 61.0859 139.068 59.6504 139.068 57.791V36.0938C139.068 34.2344 138.604 32.9902 137.674 32.3613C137.127 32.0059 135.842 31.8281 133.818 31.8281V61.9336H135.828C136.047 61.9336 136.211 61.9883 136.32 62.0977C136.457 62.207 136.525 62.3301 136.525 62.4668C136.525 62.6035 136.457 62.7266 136.32 62.8359C136.211 62.9453 136.047 63 135.828 63H122.908C122.744 63 122.607 62.959 122.498 62.877C122.389 62.7676 122.334 62.6309 122.334 62.4668C122.334 62.3027 122.389 62.1797 122.498 62.0977C122.607 61.9883 122.744 61.9336 122.908 61.9336H125.328V2.33789ZM133.818 2.33789V30.7207H135.828C136.785 30.7207 137.564 30.3926 138.166 29.7363C138.768 29.0801 139.068 28.123 139.068 26.8652V5.57812C139.068 4.34766 138.85 3.5 138.412 3.03516C137.975 2.57031 137.113 2.33789 135.828 2.33789H133.818Z" fill="#F5E62D"/>
<path d="M169.256 61.9336V2.33789H166.549C166.248 2.14648 166.098 1.96875 166.098 1.80469C166.098 1.66797 166.248 1.50391 166.549 1.3125H179.018C179.318 1.50391 179.469 1.66797 179.469 1.80469C179.469 1.96875 179.318 2.14648 179.018 2.33789H177.705V30.3926H182.914V2.33789H181.191C180.891 2.14648 180.74 1.96875 180.74 1.80469C180.74 1.64062 180.891 1.47656 181.191 1.3125H193.865C194.166 1.50391 194.316 1.66797 194.316 1.80469C194.316 1.96875 194.166 2.14648 193.865 2.33789H191.404V61.9336H193.865C194.002 61.9336 194.125 61.9883 194.234 62.0977C194.344 62.1797 194.398 62.3027 194.398 62.4668C194.398 62.6309 194.344 62.7676 194.234 62.877C194.125 62.959 194.002 63 193.865 63H181.602C181.465 63 181.342 62.959 181.232 62.877C181.15 62.7676 181.109 62.6309 181.109 62.4668C181.109 62.3027 181.15 62.1797 181.232 62.0977C181.342 61.9883 181.465 61.9336 181.602 61.9336H182.914V31.377H177.705V61.9336H179.305C179.441 61.9336 179.551 61.9883 179.633 62.0977C179.742 62.1797 179.797 62.3027 179.797 62.4668C179.797 62.6309 179.742 62.7676 179.633 62.877C179.551 62.959 179.441 63 179.305 63H166.549C166.248 62.8086 166.098 62.6309 166.098 62.4668C166.098 62.3027 166.248 62.125 166.549 61.9336H169.256Z" fill="#F5E62D"/>
<path d="M198.992 2.33789H196.367C196.094 2.14648 195.957 1.98242 195.957 1.8457C195.957 1.6543 196.094 1.47656 196.367 1.3125H219.664V24.1582C219.5 24.4316 219.336 24.5684 219.172 24.5684C219.008 24.5684 218.885 24.5273 218.803 24.4453C218.748 24.3359 218.707 23.9395 218.68 23.2559C218.488 18.7168 217.777 14.4922 216.547 10.582C215.316 6.67188 214.127 4.19727 212.979 3.1582C212.377 2.61133 211.365 2.33789 209.943 2.33789H207.4V31.2129C208.959 31.0488 210.23 30.2285 211.215 28.752C212.527 26.7559 213.184 23.6934 213.184 19.5645V16.3652C213.184 16.2285 213.225 16.1191 213.307 16.0371C213.416 15.9277 213.539 15.873 213.676 15.873C213.812 15.873 213.922 15.9277 214.004 16.0371C214.086 16.1191 214.127 16.2285 214.127 16.3652V46.8398C214.127 46.9766 214.086 47.0996 214.004 47.209C213.922 47.291 213.812 47.332 213.676 47.332C213.539 47.332 213.416 47.291 213.307 47.209C213.225 47.0996 213.184 46.9766 213.184 46.8398V43.8867C213.184 39.8398 212.445 36.627 210.969 34.248C210.094 32.8809 209.178 32.1973 208.221 32.1973C207.975 32.1973 207.783 32.2793 207.646 32.4434C207.482 32.6348 207.4 32.9355 207.4 33.3457V61.9336H208.713C209.834 61.9336 210.941 61.5234 212.035 60.7031C213.129 59.8555 214.154 58.4062 215.111 56.3555C216.068 54.2773 216.807 52.0215 217.326 49.5879C218.174 45.6504 218.598 42.5742 218.598 40.3594V37.6523C218.789 37.3516 218.967 37.2012 219.131 37.2012C219.295 37.2012 219.418 37.2422 219.5 37.3242C219.609 37.4062 219.664 37.5156 219.664 37.6523V63H196.367C196.176 63 196.025 62.9453 195.916 62.8359C195.807 62.7266 195.752 62.6035 195.752 62.4668C195.752 62.3027 195.807 62.1797 195.916 62.0977C196.025 61.9883 196.176 61.9336 196.367 61.9336H198.992V2.33789Z" fill="#F5E62D"/>
<path d="M224.504 2.33789H222.084C221.783 2.17383 221.633 1.99609 221.633 1.80469C221.633 1.64062 221.783 1.47656 222.084 1.3125H235.004C238.203 1.3125 240.979 2.67969 243.33 5.41406C245.682 8.12109 246.857 11.8262 246.857 16.5293C246.857 19.2363 246.406 21.6426 245.504 23.748C244.602 25.8535 243.262 27.5898 241.484 28.957C240.418 29.7773 238.764 30.5703 236.521 31.3359C239.037 32.0742 240.787 32.7852 241.771 33.4688C243.439 34.6172 244.67 35.998 245.463 37.6113C246.283 39.2246 246.693 41.3164 246.693 43.8867V58.8984C246.693 59.582 246.803 60.0605 247.021 60.334C247.24 60.6074 247.527 60.7441 247.883 60.7441C248.43 60.7441 248.922 60.4023 249.359 59.7188C250.07 58.625 250.521 56.6562 250.713 53.8125C250.74 53.3203 250.809 52.9922 250.918 52.8281C251.055 52.6641 251.191 52.582 251.328 52.582C251.492 52.582 251.629 52.6777 251.738 52.8691C251.875 53.0879 251.943 53.498 251.943 54.0996C251.943 57.1348 251.205 59.4863 249.729 61.1543C248.279 62.7949 246.447 63.6152 244.232 63.6152C242.264 63.6152 240.773 63.1094 239.762 62.0977C238.75 61.0859 238.244 59.6504 238.244 57.791V36.0938C238.244 34.2344 237.779 32.9902 236.85 32.3613C236.303 32.0059 235.018 31.8281 232.994 31.8281V61.9336H235.004C235.223 61.9336 235.387 61.9883 235.496 62.0977C235.633 62.207 235.701 62.3301 235.701 62.4668C235.701 62.6035 235.633 62.7266 235.496 62.8359C235.387 62.9453 235.223 63 235.004 63H222.084C221.92 63 221.783 62.959 221.674 62.877C221.564 62.7676 221.51 62.6309 221.51 62.4668C221.51 62.3027 221.564 62.1797 221.674 62.0977C221.783 61.9883 221.92 61.9336 222.084 61.9336H224.504V2.33789ZM232.994 2.33789V30.7207H235.004C235.961 30.7207 236.74 30.3926 237.342 29.7363C237.943 29.0801 238.244 28.123 238.244 26.8652V5.57812C238.244 4.34766 238.025 3.5 237.588 3.03516C237.15 2.57031 236.289 2.33789 235.004 2.33789H232.994Z" fill="#F5E62D"/>
<path d="M277.332 25.1836V40.3184C277.332 49.041 275.951 55.4121 273.189 59.4316C271.275 62.2207 268.883 63.6152 266.012 63.6152C264.07 63.6152 262.279 62.918 260.639 61.5234C258.998 60.1289 257.713 58.0781 256.783 55.3711C255.279 51.0234 254.527 46.1973 254.527 40.8926V23.1738C254.527 14.916 255.908 8.79102 258.67 4.79883C260.584 2.03711 262.949 0.65625 265.766 0.65625C267.133 0.65625 268.391 0.970703 269.539 1.59961C270.688 2.20117 271.713 3.10352 272.615 4.30664C273.518 5.48242 274.324 7.05469 275.035 9.02344C275.773 10.9648 276.293 12.9883 276.594 15.0938C277.086 18.6758 277.332 22.0391 277.332 25.1836ZM263.182 56.8887C263.182 59.0215 263.51 60.5664 264.166 61.5234C264.658 62.207 265.26 62.5488 265.971 62.5488C266.654 62.5488 267.256 62.248 267.775 61.6465C268.295 61.0176 268.555 60.1289 268.555 58.9805V6.39844C268.555 4.92188 268.213 3.74609 267.529 2.87109C267.064 2.24219 266.477 1.92773 265.766 1.92773C265.137 1.92773 264.59 2.22852 264.125 2.83008C263.496 3.65039 263.182 4.83984 263.182 6.39844V56.8887Z" fill="#F5E62D"/>
<path d="M284.756 46.7988L280.736 10.2129C280.518 8.32617 280.408 7.28711 280.408 7.0957C280.408 5.01758 280.873 3.45898 281.803 2.41992C282.76 1.35352 283.936 0.820312 285.33 0.820312C286.67 0.820312 287.805 1.35352 288.734 2.41992C289.691 3.45898 290.17 4.97656 290.17 6.97266C290.17 7.57422 290.074 8.6543 289.883 10.2129L285.822 46.7988C285.795 47.0176 285.713 47.1953 285.576 47.332L285.289 47.4961C285.152 47.4961 285.043 47.4414 284.961 47.332C284.852 47.1953 284.783 47.0176 284.756 46.7988ZM285.125 53.6895C286.191 53.6895 287.094 54.127 287.832 55.002C288.57 55.8496 288.939 57.0391 288.939 58.5703C288.939 60.1016 288.557 61.3047 287.791 62.1797C287.025 63.0547 286.123 63.4922 285.084 63.4922C284.072 63.4922 283.211 63.1094 282.5 62.3438C281.816 61.5508 281.475 60.3887 281.475 58.8574C281.475 57.1348 281.83 55.8496 282.541 55.002C283.252 54.127 284.113 53.6895 285.125 53.6895Z" fill="#F5E62D"/>
</svg>
